<svg width="40" height="40" viewBox="0 0 40 40" fill="none" xmlns="http://www.w3.org/2000/svg">
<circle cx="6.66667" cy="6.66667" r="6.66667" transform="matrix(-1 0 0 1 23.3333 5)" stroke="white" stroke-width="2"/>
<path d="M5 28.2243C5 26.7904 5.90142 25.5112 7.25182 25.0289C13.3401 22.8546 19.9933 22.8546 26.0815 25.0289C27.4319 25.5112 28.3333 26.7904 28.3333 28.2243V30.4168C28.3333 32.3959 26.5805 33.9161 24.6213 33.6362L23.0306 33.409C18.8094 32.8059 14.5239 32.8059 10.3027 33.409L8.71201 33.6362C6.75284 33.9161 5 32.3959 5 30.4168V28.2243Z" stroke="white" stroke-width="2"/>
<path d="M28.3333 18.3335H35" stroke="white" stroke-width="2.5" stroke-linecap="round" stroke-linejoin="round"/>
<path d="M31.6667 14.9998L31.6667 21.6665" stroke="white" stroke-width="2.5" stroke-linecap="round" stroke-linejoin="round"/>
</svg>
