<svg width="24" height="24" viewBox="0 0 24 24" fill="none" xmlns="http://www.w3.org/2000/svg">
<path d="M5 12L5 8.7241C5 8.25623 5.16403 7.80316 5.46356 7.44373L9.40031 2.71963C9.7803 2.26365 10.3432 2 10.9367 2L13 2L17 2C19.2091 2 21 3.79086 21 6L21 18C21 20.2091 19.2091 22 17 22L12 22" stroke="white" stroke-width="1.5" stroke-linecap="round"/>
<path d="M8 19L2 19" stroke="white" stroke-width="1.5" stroke-linecap="round" stroke-linejoin="round"/>
<path d="M5 16L5 22" stroke="white" stroke-width="1.5" stroke-linecap="round" stroke-linejoin="round"/>
<path d="M10 2.5L10 6C10 7.10457 9.10457 8 8 8L5.5 8" stroke="white" stroke-width="1.5" stroke-linecap="round"/>
</svg>
