<svg width="48" height="48" viewBox="0 0 48 48" fill="none" xmlns="http://www.w3.org/2000/svg">
<path d="M39.47 25.5H35.784C34.6696 25.4997 33.577 25.8097 32.6289 26.3954C31.6808 26.9811 30.9145 27.8193 30.416 28.816L29.904 29.84C29.655 30.3387 29.272 30.7582 28.7979 31.0514C28.3238 31.3447 27.7774 31.5 27.22 31.5H20.784C20.2268 31.5002 19.6805 31.3451 19.2065 31.0523C18.7324 30.7594 18.3493 30.3404 18.1 29.842L17.588 28.816C17.0895 27.8193 16.3232 26.9811 15.3751 26.3954C14.427 25.8097 13.3344 25.4997 12.22 25.5H8.53M13.824 6C12.5406 5.99975 11.2909 6.41104 10.2585 7.17347C9.22606 7.93591 8.46533 9.0093 8.088 10.236L3.266 25.912C3.08993 26.4835 3.00027 27.078 3 27.676V36C3 37.5913 3.63214 39.1174 4.75736 40.2426C5.88258 41.3679 7.4087 42 9 42H39C40.5913 42 42.1174 41.3679 43.2426 40.2426C44.3679 39.1174 45 37.5913 45 36V27.676C45 27.078 44.91 26.484 44.734 25.912L39.91 10.236C39.5328 9.00962 38.7723 7.93647 37.7403 7.17407C36.7083 6.41167 35.4591 6.00018 34.176 6H13.824Z" stroke="#03045E" stroke-width="2" stroke-linecap="round" stroke-linejoin="round"/>
</svg>
