<svg width="48" height="48" viewBox="0 0 48 48" fill="none" xmlns="http://www.w3.org/2000/svg">
<path d="M25.4601 2.8173L40.9768 11.5043C41.6085 11.8579 41.9998 12.5254 41.9998 13.2494V34.8958C41.9998 35.6245 41.6035 36.2955 40.9653 36.6473L25.4542 45.1985C24.5495 45.6972 23.4519 45.6954 22.5489 45.1937L7.02849 36.5715C6.39355 36.2188 5.99976 35.5495 5.99976 34.8232V13.1768C5.99976 12.4505 6.39355 11.7812 7.02849 11.4285L22.5377 2.8125C23.4468 2.30745 24.5527 2.30927 25.4601 2.8173Z" stroke="#03045E" stroke-width="2" stroke-linecap="round" stroke-linejoin="round"/>
<path d="M24.0434 22.4355L12 16M24.0434 22.4355V38M24.0434 22.4355L36 16.0574" stroke="#03045E" stroke-width="2" stroke-linecap="round" stroke-linejoin="round"/>
</svg>
