<svg width="48" height="48" viewBox="0 0 48 48" fill="none" xmlns="http://www.w3.org/2000/svg">
<path d="M43.9692 20.0172C44.169 18.9691 43.3696 17.7113 42.3704 17.7113L30.9792 16.0343L25.7832 5.13396C25.5834 4.71472 25.3835 4.50509 24.9838 4.29547C23.9846 3.6666 22.7855 4.08585 22.186 5.13396L17.1898 16.0343L5.79861 17.7113C5.19908 17.7113 4.79938 17.9209 4.59954 18.3402C3.80015 19.1787 3.80015 20.4364 4.59954 21.2749L12.7932 29.6598L10.7948 41.6083C10.7948 42.0275 10.7948 42.4468 10.9946 42.866C11.5941 43.9142 12.7932 44.3334 13.7924 43.7045L23.9846 38.0447L34.1767 43.7045C34.3766 43.9142 34.7763 43.9142 35.176 43.9142C35.3758 43.9142 35.3758 43.9142 35.5756 43.9142C36.5749 43.7045 37.3743 42.6564 37.1744 41.3987L35.176 29.4502L43.3696 21.0653C43.7693 20.8557 43.9692 20.4364 43.9692 20.0172Z" stroke="#03045E" stroke-width="2" stroke-linecap="round" stroke-linejoin="round"/>
</svg>
