<svg width="40" height="40" viewBox="0 0 40 40" fill="none" xmlns="http://www.w3.org/2000/svg">
<path fill-rule="evenodd" clip-rule="evenodd" d="M19.9999 16.25C17.9289 16.25 16.2499 17.9289 16.2499 20C16.2499 22.0711 17.9289 23.75 19.9999 23.75C22.071 23.75 23.7499 22.0711 23.7499 20C23.7499 17.9289 22.071 16.25 19.9999 16.25ZM17.7499 20C17.7499 18.7574 18.7573 17.75 19.9999 17.75C21.2426 17.75 22.2499 18.7574 22.2499 20C22.2499 21.2427 21.2426 22.25 19.9999 22.25C18.7573 22.25 17.7499 21.2427 17.7499 20Z" fill="#424242"/>
<path fill-rule="evenodd" clip-rule="evenodd" d="M23.4147 11.2323C22.4342 7.79692 17.5656 7.79692 16.5852 11.2323C16.2815 12.2967 15.1879 12.9281 14.1142 12.6589C10.6489 11.7903 8.2146 16.0066 10.6995 18.5734C11.4694 19.3687 11.4694 20.6314 10.6995 21.4266C8.2146 23.9934 10.6489 28.2097 14.1142 27.3411C15.1879 27.072 16.2815 27.7033 16.5852 28.7677C17.5656 32.2031 22.4342 32.2031 23.4147 28.7677C23.7184 27.7033 24.812 27.072 25.8857 27.3411C29.351 28.2097 31.7853 23.9934 29.3004 21.4266C28.5305 20.6314 28.5305 19.3687 29.3004 18.5734C31.7853 16.0066 29.351 11.7903 25.8857 12.6589C24.812 12.9281 23.7184 12.2967 23.4147 11.2323ZM18.0276 11.6439C18.5939 9.6597 21.406 9.6597 21.9722 11.6439C22.4982 13.4868 24.3915 14.5799 26.2504 14.1139C28.2519 13.6122 29.6579 16.0475 28.2227 17.53C26.8897 18.9069 26.8897 21.0931 28.2227 22.47C29.6579 23.9525 28.2519 26.3878 26.2504 25.8861C24.3915 25.4202 22.4982 26.5133 21.9722 28.3561C21.406 30.3403 18.5939 30.3403 18.0276 28.3561C17.5017 26.5133 15.6084 25.4202 13.7495 25.8861C11.748 26.3878 10.342 23.9525 11.7772 22.47C13.1102 21.0931 13.1102 18.9069 11.7772 17.53C10.342 16.0475 11.748 13.6122 13.7495 14.1139C15.6084 14.5799 17.5017 13.4868 18.0276 11.6439Z" fill="#424242"/>
</svg>
