<svg width="39" height="39" viewBox="0 0 39 39" fill="none" xmlns="http://www.w3.org/2000/svg">
<path fill-rule="evenodd" clip-rule="evenodd" d="M5.85595 15.8286C7.16694 14.4224 9.01093 13.4062 11.0329 13.4063H12.5724C13.2455 13.4063 13.7911 13.9519 13.7911 14.625C13.7911 15.2981 13.2455 15.8438 12.5724 15.8438H11.0329C9.83736 15.8438 8.6024 16.4572 7.63882 17.4907C6.67565 18.5238 6.09375 19.8623 6.09375 21.125V27.625C6.09375 28.8868 6.67558 30.2253 7.63889 31.2588C8.60259 32.2926 9.83755 32.9062 11.0329 32.9062H27.9671C29.1625 32.9062 30.3974 32.2926 31.3611 31.2588C32.3244 30.2253 32.9062 28.8868 32.9062 27.625V21.125C32.9062 19.8687 32.3233 18.53 31.3576 17.4943C30.3914 16.458 29.1562 15.8438 27.9671 15.8438H26.4276C25.7545 15.8438 25.2089 15.2981 25.2089 14.625C25.2089 13.9519 25.7545 13.4063 26.4276 13.4063H27.9671C29.986 13.4063 31.8297 14.4263 33.1405 15.8321C34.4518 17.2385 35.3438 19.1498 35.3438 21.125V27.625C35.3438 29.6026 34.4554 31.5141 33.1441 32.9208C31.8332 34.3271 29.9893 35.3438 27.9671 35.3438H11.0329C9.01074 35.3438 7.16675 34.3271 5.85588 32.9208C4.54462 31.5141 3.65625 29.6026 3.65625 27.625L3.65625 21.125C3.65625 19.1467 4.54455 17.2352 5.85595 15.8286Z" fill="#03045E"/>
<path fill-rule="evenodd" clip-rule="evenodd" d="M19.5 3.65625C19.8232 3.65625 20.1332 3.78465 20.3618 4.01322L25.2368 8.88823C25.7127 9.36418 25.7127 10.1358 25.2368 10.6118C24.7608 11.0878 23.9892 11.0877 23.5132 10.6118L20.7188 7.81733L20.7188 24.375C20.7188 25.0481 20.1731 25.5938 19.5 25.5938C18.8269 25.5938 18.2813 25.0481 18.2813 24.375L18.2813 7.81733L15.4868 10.6118C15.0108 11.0877 14.2392 11.0877 13.7632 10.6118C13.2873 10.1358 13.2873 9.36418 13.7632 8.88823L18.6382 4.01321C18.8668 3.78465 19.1768 3.65625 19.5 3.65625Z" fill="#03045E"/>
</svg>
