<svg width="40" height="40" viewBox="0 0 40 40" fill="none" xmlns="http://www.w3.org/2000/svg">
<circle cx="5.67376" cy="5.67376" r="5.67376" transform="matrix(-1 0 0 1 26.0286 8.3335)" stroke="white" stroke-width="2"/>
<path d="M10.4255 28.0992C10.4255 26.8788 11.1927 25.7902 12.342 25.3797C17.5235 23.5292 23.1858 23.5292 28.3673 25.3797C29.5165 25.7902 30.2837 26.8788 30.2837 28.0992V29.9651C30.2837 31.6494 28.7919 32.9433 27.1245 32.7051L26.5686 32.6256C22.4469 32.0368 18.2624 32.0368 14.1406 32.6256L13.5847 32.7051C11.9173 32.9433 10.4255 31.6494 10.4255 29.9651V28.0992Z" stroke="white" stroke-width="2"/>
<path d="M28.8653 19.8383C31.3273 19.8383 33.3232 17.8424 33.3232 15.3803C33.3232 12.9183 31.3273 10.9224 28.8653 10.9224" stroke="white" stroke-width="2" stroke-linecap="round"/>
<path d="M33.7477 30.0087L34.1845 30.0711C35.4946 30.2583 36.6667 29.2417 36.6667 27.9183V26.4522C36.6667 25.4934 36.0639 24.638 35.1609 24.3155C34.2602 23.9938 33.3409 23.7433 32.4114 23.564" stroke="white" stroke-width="2" stroke-linecap="round"/>
<path d="M11.1347 19.8383C8.67265 19.8383 6.67676 17.8424 6.67676 15.3803C6.67676 12.9183 8.67265 10.9224 11.1347 10.9224" stroke="white" stroke-width="2" stroke-linecap="round"/>
<path d="M6.2523 30.0087L5.8155 30.0711C4.50542 30.2583 3.3333 29.2417 3.3333 27.9183V26.4522C3.3333 25.4934 3.93608 24.638 4.83908 24.3155C5.73983 23.9938 6.65907 23.7433 7.58862 23.564" stroke="white" stroke-width="2" stroke-linecap="round"/>
</svg>
