<svg width="48" height="48" viewBox="0 0 48 48" fill="none" xmlns="http://www.w3.org/2000/svg">
<path fill-rule="evenodd" clip-rule="evenodd" d="M24 28C17.5277 28 12 29.2156 12 34C12 38.7823 17.4924 40 24 40C30.4723 40 36 38.7823 36 34C36 29.2177 30.5076 28 24 28Z" stroke="#03045E" stroke-width="2" stroke-linecap="round" stroke-linejoin="round"/>
<path d="M39.5 37.3082C42.1953 36.6573 44 35.3563 44 32.9678C44 30.1555 41.5142 28.8508 38 28.3398" stroke="#03045E" stroke-width="2" stroke-linecap="round" stroke-linejoin="round"/>
<path d="M8.5 37.3082C5.80466 36.6573 4 35.3563 4 32.9678C4 30.1555 6.48576 28.8508 10 28.3398" stroke="#03045E" stroke-width="2" stroke-linecap="round" stroke-linejoin="round"/>
<circle cx="24" cy="14" r="8" stroke="#03045E" stroke-width="2" stroke-linecap="round" stroke-linejoin="round"/>
<path d="M36 21.7479C38.3003 21.089 40 18.7654 40 15.9999C40 13.2345 38.3003 10.9108 36 10.252" stroke="#03045E" stroke-width="2" stroke-linecap="round" stroke-linejoin="round"/>
<path d="M12 21.7479C9.6997 21.089 8 18.7654 8 15.9999C8 13.2345 9.6997 10.9108 12 10.252" stroke="#03045E" stroke-width="2" stroke-linecap="round" stroke-linejoin="round"/>
</svg>
